<?xml version="1.0" encoding="UTF-8"?>
<svg id="_Слой_1" data-name="Слой 1" xmlns="http://www.w3.org/2000/svg" xmlns:xlink="http://www.w3.org/1999/xlink" viewBox="0 0 19.7439 19.7439">
  <defs>
    <style>
      .cls-1 {
        fill: url(#_Безымянный_градиент_597);
      }

      .cls-2 {
        fill: url(#_Безымянный_градиент_420);
      }

      .cls-3 {
        fill: #f00004;
      }

      .cls-4 {
        fill: #ffd9bd;
      }

      .cls-5 {
        fill: #fac28f;
      }

      .cls-6 {
        fill: #aa0e28;
      }

      .cls-7 {
        fill: #fc8f65;
      }

      .cls-8 {
        fill: none;
        stroke: #af1746;
        stroke-linecap: round;
        stroke-linejoin: round;
        stroke-width: .7px;
      }
    </style>
    <radialGradient id="_Безымянный_градиент_420" data-name="Безымянный градиент 420" cx="9.872" cy="9.872" fx="9.872" fy="9.872" r="9.872" gradientUnits="userSpaceOnUse">
      <stop offset=".766" stop-color="#ff157d"/>
      <stop offset=".7704" stop-color="#f91381" stop-opacity=".9431"/>
      <stop offset=".7865" stop-color="#e80d91" stop-opacity=".7496"/>
      <stop offset=".8022" stop-color="#d9089d" stop-opacity=".5888"/>
      <stop offset=".8172" stop-color="#cd04a7" stop-opacity=".4637"/>
      <stop offset=".8312" stop-color="#c502af" stop-opacity=".3741"/>
      <stop offset=".8439" stop-color="#c000b3" stop-opacity=".3199"/>
      <stop offset=".8541" stop-color="#bf00b5" stop-opacity=".301"/>
      <stop offset=".9094" stop-color="#d20099" stop-opacity=".1532"/>
      <stop offset=".9643" stop-color="#e00085" stop-opacity=".0409"/>
      <stop offset="1" stop-color="#e6007e" stop-opacity="0"/>
    </radialGradient>
    <radialGradient id="_Безымянный_градиент_597" data-name="Безымянный градиент 597" cx="9.872" cy="9.872" fx="9.872" fy="9.872" r="9.872" gradientUnits="userSpaceOnUse">
      <stop offset=".7826" stop-color="#ff421b"/>
      <stop offset=".7861" stop-color="#f83e18" stop-opacity=".9382"/>
      <stop offset=".7978" stop-color="#e53211" stop-opacity=".7462"/>
      <stop offset=".8092" stop-color="#d6290b" stop-opacity=".5867"/>
      <stop offset=".82" stop-color="#c92106" stop-opacity=".4625"/>
      <stop offset=".8302" stop-color="#c11c02" stop-opacity=".3735"/>
      <stop offset=".8394" stop-color="#bb1900" stop-opacity=".3197"/>
      <stop offset=".8468" stop-color="#ba1800" stop-opacity=".301"/>
      <stop offset=".867" stop-color="#ba140a" stop-opacity=".2358"/>
      <stop offset=".9164" stop-color="#ba0e1e" stop-opacity=".106"/>
      <stop offset=".962" stop-color="#ba0a2a" stop-opacity=".0272"/>
      <stop offset="1" stop-color="#ba092f" stop-opacity="0"/>
    </radialGradient>
  </defs>
  <g id="red">
    <circle class="cls-2" cx="9.872" cy="9.872" r="9.872"/>
    <circle class="cls-1" cx="9.872" cy="9.872" r="9.872"/>
    <circle class="cls-6" cx="9.872" cy="9.872" r="7.5616"/>
    <path class="cls-3" d="M15.9436,5.8003c.2849.4334,1.2258,1.8426.5327,2.0905-.8836.0735-1.5623.6823-2.1423,1.2859-6.3904,7.6236-7.3904,2.6236-10.171,3.0132-1.2194-.3896-3.2194-6.3896,3.7806-9.3896,3-1,7,1,8,3Z"/>
    <path class="cls-3" d="M16.7032,11.2654c.3824.3815-.4046,2.1747-.7596,2.5349-1.9586,2.9045-3.693,2.9207-4,3-1.1673.12-1.8309-.0277-1.3839-.7655,1.3839-.2345,2.6914-2.3729,2.8961-2.6833.1464.0521,1.4878-2.5512,3.2474-2.0861Z"/>
    <path class="cls-7" d="M8.3447,3.4779c4.5988-.6776,5.5556,2.1744,5.4595,3.7171-.2959,4.7505-9.3225,6.5377-9.2928,1.2778.0054-.9601.2323-1.6262.2323-1.6262.9004-1.851,1.676-2.5196,3.601-3.3686Z"/>
    <path class="cls-5" d="M4.163,12.1899c.0871.2094,1.2101,2.2956,2.2167,3.0686.7918.6079,2.5403,1.6065,3.5639,1.5419-2,1-8-2-7-7,.6032.4672.9155,1.6585,1.2194,2.3896Z"/>
    <path class="cls-4" d="M14.2689,4.7557c.2968.4118,1.6747,3.0447-2.1489,2.4395-.7917.0227-2.3264.6838-3.1764.6052-1.3179-.1218-2.1297-1.2598-1.8696-2.8641.9508-3.2841,5.8696-2.1359,7.1949-.1806Z"/>
    <path class="cls-4" d="M4.6538,6.7213c.7326-.5979,1.4576-.1825,1.5489.1538.2023,1.7914-1.4332,2.2212-1.8632,1.7279-.4269-.477-.2821-1.3241.3143-1.8816Z"/>
    <circle class="cls-8" cx="9.9708" cy="9.8447" r="7.4203"/>
  </g>
</svg>