<?xml version="1.0" encoding="UTF-8"?>
<svg id="_Слой_1" data-name="Слой 1" xmlns="http://www.w3.org/2000/svg" viewBox="0 0 15.5405 15.5405">
  <defs>
    <style>
      .cls-1 {
        fill: #0b774d;
      }

      .cls-2 {
        fill: #79f0c8;
      }

      .cls-3 {
        fill: #19db88;
      }

      .cls-4 {
        fill: #04bf6f;
      }

      .cls-5 {
        fill: #b1fce1;
      }

      .cls-6 {
        fill: none;
        stroke: #07603b;
        stroke-linecap: round;
        stroke-linejoin: round;
        stroke-width: .7px;
      }
    </style>
  </defs>
  <g id="green">
    <circle class="cls-1" cx="7.6714" cy="7.7975" r="7.5616"/>
    <path class="cls-4" d="M13.7431,3.7258c.2849.4334,1.2258,1.8426.5327,2.0905-.8836.0735-1.5623.6823-2.1423,1.2859-6.3904,7.6236-7.3904,2.6236-10.171,3.0132C.7431,9.7258-1.2569,3.7258,5.7431.7258c3-1,7,1,8,3Z"/>
    <path class="cls-4" d="M14.5027,9.1909c.3824.3815-.4046,2.1747-.7596,2.5349-1.9586,2.9045-3.693,2.9207-4,3-1.1673.12-1.8309-.0277-1.3839-.7655,1.3839-.2345,2.6914-2.3729,2.8961-2.6833.1464.0521,1.4878-2.5512,3.2474-2.0861Z"/>
    <path class="cls-3" d="M6.1442,1.4034c4.5988-.6776,5.5556,2.1744,5.4595,3.7171-.2959,4.7505-9.3225,6.5377-9.2928,1.2778.0054-.9601.2323-1.6262.2323-1.6262.9004-1.851,1.676-2.5196,3.601-3.3686Z"/>
    <path class="cls-2" d="M1.9625,10.1154c.0871.2094,1.2101,2.2956,2.2167,3.0686.7918.6079,2.5403,1.6065,3.5639,1.5419C5.7431,15.7258-.2569,12.7258.7431,7.7258c.6032.4672.9155,1.6585,1.2194,2.3896Z"/>
    <path class="cls-5" d="M12.0684,2.6812c.2968.4118,1.6747,3.0447-2.1489,2.4395-.7917.0227-2.3264.6838-3.1764.6052-1.3179-.1218-2.1297-1.2598-1.8696-2.8641.9508-3.2841,5.8696-2.1359,7.1949-.1806Z"/>
    <path class="cls-5" d="M2.4533,4.6469c.7326-.5979,1.4576-.1825,1.5489.1538.2023,1.7914-1.4332,2.2212-1.8632,1.7279-.4269-.477-.2821-1.3241.3143-1.8816Z"/>
    <circle class="cls-6" cx="7.7703" cy="7.7703" r="7.4203"/>
  </g>
</svg>